# xmcd CD database file
#
# Track frame offsets:
#	150
#	26486
#	47845
#	64456
#	95334
#	123824
#	143897
#	167981
#	198196
#	214933
#
# Disc length: 3396 seconds
#
# Revision: 0
# Processed by: cddbd v1.5PL3 Copyright (c) Steve Scherf et al.
# Submitted via: CDex 1.51
#
DISCID=900d420a
DTITLE=Christian Howes - Ten Yard
DYEAR=1900
DGENRE=Jazz
TTITLE0='s I Am
TTITLE1='tranes's Maiden
TTITLE2=Laughing Tango
TTITLE3=Sock's Groove
TTITLE4=Ten Yard
TTITLE5=Vito's Melody
TTITLE6=Ode To Sco'
TTITLE7=Song For Tony
TTITLE8=Laughing Song
TTITLE9=Here's That Rainy Day
EXTD=
EXTT0=
EXTT1=
EXTT2=
EXTT3=
EXTT4=
EXTT5=
EXTT6=
EXTT7=
EXTT8=
EXTT9=
PLAYORDER=
